<?xml version="1.0" encoding="UTF-8"?>
<svg width="700pt" height="700pt" version="1.1" viewBox="0 0 700 700" xmlns="http://www.w3.org/2000/svg" xmlns:xlink="http://www.w3.org/1999/xlink">
 <defs>
  <symbol id="e" overflow="visible">
   <path d="m29.953-1.7969c-1.543 0.80469-3.1523 1.4062-4.8281 1.8125-1.6797 0.41406-3.4219 0.625-5.2344 0.625-5.4297 0-9.7305-1.5156-12.906-4.5469-3.1797-3.0391-4.7656-7.1602-4.7656-12.359 0-5.207 1.5859-9.3281 4.7656-12.359 3.1758-3.0312 7.4766-4.5469 12.906-4.5469 1.8125 0 3.5547 0.20312 5.2344 0.60938 1.6758 0.40625 3.2852 1.0117 4.8281 1.8125v6.7344c-1.5625-1.0625-3.1016-1.8359-4.6094-2.3281-1.5117-0.5-3.1055-0.75-4.7812-0.75-3 0-5.3594 0.96484-7.0781 2.8906-1.7188 1.918-2.5781 4.5625-2.5781 7.9375 0 3.3672 0.85938 6.0117 2.5781 7.9375 1.7188 1.918 4.0781 2.875 7.0781 2.875 1.6758 0 3.2695-0.24219 4.7812-0.73438 1.5078-0.5 3.0469-1.2812 4.6094-2.3438z"/>
  </symbol>
  <symbol id="j" overflow="visible">
   <path d="m21.922-17.797c-0.6875-0.3125-1.3711-0.54688-2.0469-0.70312-0.67969-0.15625-1.3594-0.23438-2.0469-0.23438-2 0-3.5469 0.64844-4.6406 1.9375-1.0859 1.293-1.625 3.1367-1.625 5.5312v11.266h-7.8125v-24.453h7.8125v4.0156c1.0078-1.5938 2.1641-2.7539 3.4688-3.4844 1.3008-0.73828 2.8594-1.1094 4.6719-1.1094 0.26953 0 0.55469 0.011719 0.85938 0.03125 0.30078 0.023438 0.74219 0.070312 1.3281 0.14062z"/>
  </symbol>
  <symbol id="a" overflow="visible">
   <path d="m28.156-12.281v2.2188h-18.266c0.1875 1.8359 0.84766 3.2109 1.9844 4.125 1.1328 0.91797 2.7188 1.375 4.75 1.375 1.6445 0 3.3281-0.24219 5.0469-0.73438 1.7266-0.48828 3.5039-1.2266 5.3281-2.2188v6.0312c-1.8438 0.69922-3.6953 1.2266-5.5469 1.5781-1.8438 0.36328-3.6953 0.54688-5.5469 0.54688-4.418 0-7.8555-1.125-10.312-3.375-2.4492-2.25-3.6719-5.4062-3.6719-9.4688 0-3.9883 1.2031-7.125 3.6094-9.4062s5.7188-3.4219 9.9375-3.4219c3.8438 0 6.9141 1.1562 9.2188 3.4688 2.3125 2.3125 3.4688 5.4062 3.4688 9.2812zm-8.0312-2.6094c0-1.4766-0.43359-2.6719-1.2969-3.5781-0.86719-0.91406-1.9961-1.375-3.3906-1.375-1.5234 0-2.7578 0.42969-3.7031 1.2812-0.9375 0.85547-1.5273 2.0781-1.7656 3.6719z"/>
  </symbol>
  <symbol id="c" overflow="visible">
   <path d="m14.719-11c-1.6367 0-2.8672 0.27734-3.6875 0.82812-0.82422 0.55469-1.2344 1.3672-1.2344 2.4375 0 0.99219 0.32812 1.7656 0.98438 2.3281 0.66406 0.5625 1.5938 0.84375 2.7812 0.84375 1.4688 0 2.7031-0.52344 3.7031-1.5781 1-1.0625 1.5-2.3828 1.5-3.9688v-0.89062zm11.938-2.9531v13.953h-7.8906v-3.625c-1.043 1.4922-2.2188 2.5742-3.5312 3.25s-2.9062 1.0156-4.7812 1.0156c-2.5312 0-4.5898-0.73828-6.1719-2.2188-1.5742-1.4766-2.3594-3.3945-2.3594-5.75 0-2.875 0.98438-4.9766 2.9531-6.3125 1.9766-1.3438 5.0781-2.0156 9.2969-2.0156h4.5938v-0.60938c0-1.2266-0.49219-2.1289-1.4688-2.7031-0.96875-0.58203-2.4844-0.875-4.5469-0.875-1.6797 0-3.2344 0.16797-4.6719 0.5-1.4375 0.33594-2.7773 0.83984-4.0156 1.5156v-5.9688c1.6641-0.40625 3.3438-0.71094 5.0312-0.92188 1.6953-0.20703 3.3906-0.3125 5.0781-0.3125 4.4062 0 7.5859 0.87109 9.5469 2.6094 1.957 1.7422 2.9375 4.5625 2.9375 8.4688z"/>
  </symbol>
  <symbol id="b" overflow="visible">
   <path d="m12.281-31.391v6.9375h8.0625v5.5938h-8.0625v10.375c0 1.1367 0.22266 1.9023 0.67188 2.2969 0.45703 0.39844 1.3594 0.59375 2.7031 0.59375h4.0156v5.5938h-6.7031c-3.0859 0-5.2734-0.64062-6.5625-1.9219-1.293-1.2891-1.9375-3.4766-1.9375-6.5625v-10.375h-3.875v-5.5938h3.875v-6.9375z"/>
  </symbol>
  <symbol id="i" overflow="visible">
   <path d="m20.391-20.875v-13.094h7.8594v33.969h-7.8594v-3.5312c-1.0859 1.4375-2.2734 2.4961-3.5625 3.1719-1.293 0.66406-2.793 1-4.5 1-3.0117 0-5.4844-1.1953-7.4219-3.5938-1.9297-2.3945-2.8906-5.4766-2.8906-9.25 0-3.7695 0.96094-6.8477 2.8906-9.2344 1.9375-2.3945 4.4102-3.5938 7.4219-3.5938 1.6875 0 3.1797 0.33984 4.4844 1.0156 1.3008 0.67969 2.4922 1.7266 3.5781 3.1406zm-5.1562 15.828c1.6758 0 2.9531-0.60938 3.8281-1.8281 0.88281-1.2188 1.3281-2.9922 1.3281-5.3281 0-2.3203-0.44531-4.0938-1.3281-5.3125-0.875-1.2266-2.1523-1.8438-3.8281-1.8438-1.6562 0-2.9297 0.61719-3.8125 1.8438-0.875 1.2188-1.3125 2.9922-1.3125 5.3125 0 2.3359 0.4375 4.1094 1.3125 5.3281 0.88281 1.2188 2.1562 1.8281 3.8125 1.8281z"/>
  </symbol>
  <symbol id="h" overflow="visible">
   <path d="m16.766-5.0469c1.6758 0 2.9531-0.60938 3.8281-1.8281 0.88281-1.2188 1.3281-2.9922 1.3281-5.3281 0-2.3203-0.44531-4.0938-1.3281-5.3125-0.875-1.2266-2.1523-1.8438-3.8281-1.8438-1.6797 0-2.9648 0.61719-3.8594 1.8438-0.89844 1.2305-1.3438 3-1.3438 5.3125s0.44531 4.0859 1.3438 5.3125c0.89453 1.2305 2.1797 1.8438 3.8594 1.8438zm-5.2031-15.828c1.082-1.4141 2.2734-2.4609 3.5781-3.1406 1.3125-0.67578 2.8203-1.0156 4.5312-1.0156 3.0078 0 5.4766 1.1992 7.4062 3.5938 1.9375 2.3867 2.9062 5.4648 2.9062 9.2344 0 3.7734-0.96875 6.8555-2.9062 9.25-1.9297 2.3984-4.3984 3.5938-7.4062 3.5938-1.7109 0-3.2188-0.33984-4.5312-1.0156-1.3047-0.67578-2.4961-1.7266-3.5781-3.1562v3.5312h-7.8125v-33.969h7.8125z"/>
  </symbol>
  <symbol id="g" overflow="visible">
   <path d="m0.54688-24.453h7.8125l6.5781 16.594 5.5781-16.594h7.8125l-10.281 26.766c-1.0312 2.7188-2.2344 4.6172-3.6094 5.7031-1.375 1.082-3.1875 1.625-5.4375 1.625h-4.5312v-5.125h2.4531c1.3203 0 2.2852-0.21484 2.8906-0.64062 0.60156-0.41797 1.0703-1.1719 1.4062-2.2656l0.21875-0.67188z"/>
  </symbol>
  <symbol id="f" overflow="visible">
   <path d="m4.1094-32.594h8.3906v29.422c0 4.0625-1.1055 7.0977-3.3125 9.1094-2.1992 2.0078-5.5312 3.0156-10 3.0156h-1.7031v-6.3594h1.3125c1.75 0 3.0703-0.49219 3.9688-1.4688 0.89453-0.96875 1.3438-2.3984 1.3438-4.2969z"/>
  </symbol>
  <symbol id="m" overflow="visible">
   <path d="m26.406-20.391c0.98828-1.5078 2.1641-2.6602 3.5312-3.4531 1.3633-0.78906 2.8594-1.1875 4.4844-1.1875 2.8125 0 4.9531 0.86719 6.4219 2.5938 1.4688 1.7305 2.2031 4.2461 2.2031 7.5469v14.891h-7.8594v-12.75c0.007812-0.1875 0.019531-0.37891 0.03125-0.57812 0.007812-0.20703 0.015625-0.5 0.015625-0.875 0-1.7383-0.25781-2.9922-0.76562-3.7656-0.51172-0.78125-1.3359-1.1719-2.4688-1.1719-1.4922 0-2.6406 0.61719-3.4531 1.8438-0.80469 1.2188-1.2148 2.9844-1.2344 5.2969v12h-7.8594v-12.75c0-2.707-0.23438-4.4453-0.70312-5.2188-0.46875-0.78125-1.2969-1.1719-2.4844-1.1719-1.5 0-2.6641 0.61719-3.4844 1.8438-0.8125 1.2305-1.2188 2.9844-1.2188 5.2656v12.031h-7.8594v-24.453h7.8594v3.5781c0.96875-1.375 2.0703-2.4102 3.3125-3.1094 1.2383-0.69531 2.6094-1.0469 4.1094-1.0469 1.6875 0 3.1758 0.40625 4.4688 1.2188 1.3008 0.8125 2.2852 1.9531 2.9531 3.4219z"/>
  </symbol>
  <symbol id="l" overflow="visible">
   <path d="m22.859-23.688v5.9375c-1.6797-0.69531-3.2969-1.2188-4.8594-1.5625-1.5547-0.35156-3.0234-0.53125-4.4062-0.53125-1.4805 0-2.5781 0.1875-3.2969 0.5625-0.71875 0.36719-1.0781 0.93359-1.0781 1.7031 0 0.63672 0.26953 1.1211 0.8125 1.4531 0.53906 0.33594 1.5195 0.57812 2.9375 0.73438l1.375 0.20312c4 0.51172 6.6875 1.3516 8.0625 2.5156 1.3828 1.1562 2.0781 2.9805 2.0781 5.4688 0 2.6055-0.96094 4.5625-2.875 5.875-1.918 1.3125-4.7812 1.9688-8.5938 1.9688-1.6172 0-3.2891-0.13281-5.0156-0.39062-1.7305-0.25-3.5-0.62891-5.3125-1.1406v-5.9375c1.5508 0.75 3.1445 1.3203 4.7812 1.7031 1.6445 0.375 3.3125 0.5625 5 0.5625 1.5195 0 2.6641-0.20703 3.4375-0.625 0.76953-0.42578 1.1562-1.0547 1.1562-1.8906 0-0.69531-0.26562-1.2109-0.79688-1.5469-0.53125-0.34375-1.5898-0.60938-3.1719-0.79688l-1.375-0.1875c-3.4805-0.4375-5.918-1.2422-7.3125-2.4219-1.3984-1.1758-2.0938-2.9609-2.0938-5.3594 0-2.5938 0.88281-4.5156 2.6562-5.7656 1.7812-1.25 4.5039-1.875 8.1719-1.875 1.4375 0 2.9453 0.10938 4.5312 0.32812 1.5938 0.21875 3.3203 0.55859 5.1875 1.0156z"/>
  </symbol>
  <symbol id="k" overflow="visible">
   <path d="m15.391-19.453c-1.7305 0-3.0547 0.625-3.9688 1.875-0.90625 1.2422-1.3594 3.0312-1.3594 5.375s0.45312 4.1406 1.3594 5.3906c0.91406 1.2422 2.2383 1.8594 3.9688 1.8594 1.6953 0 3-0.61719 3.9062-1.8594 0.90625-1.25 1.3594-3.0469 1.3594-5.3906s-0.45312-4.1328-1.3594-5.375c-0.90625-1.25-2.2109-1.875-3.9062-1.875zm0-5.5781c4.207 0 7.4922 1.1367 9.8594 3.4062 2.3633 2.2734 3.5469 5.4141 3.5469 9.4219 0 4.0234-1.1836 7.168-3.5469 9.4375-2.3672 2.2734-5.6523 3.4062-9.8594 3.4062-4.2188 0-7.5234-1.1328-9.9062-3.4062-2.375-2.2695-3.5625-5.4141-3.5625-9.4375 0-4.0078 1.1875-7.1484 3.5625-9.4219 2.3828-2.2695 5.6875-3.4062 9.9062-3.4062z"/>
  </symbol>
  <symbol id="d" overflow="visible">
   <path d="m3.75-33.969h7.8125v33.969h-7.8125z"/>
  </symbol>
 </defs>
 <g>
  <path d="m512.92 321.45c25.301-10.363 42.25-29.062 62.391-44.574 30.262 64.312-21.859 116.72-57.941 153.78-10.363 10.637-22.68 20.43-33.426 28.965-17.977 14.297-37.047 27.902-55.703 37.887-26.766 14.312-73.969 29.547-106.98 20.051-14.902-4.2812-29.234-8-39.168-13.168-8.7148-4.5312-21.957-15.242-27.695-24.719-35.383-58.379-53.676-162.94-86.914-222.86-20.57 3.9414-25.293 23.746-42.348 31.199-18.051-88.73 47.273-136.13 106.98-182.74 18.066-14.117 41.367-26.766 60.176-35.652 26.461-12.523 70.902-36.867 100.29-26.75 47.641 16.422 68.223 112.16 82.453 178.29 9.1367 42.453 4.1992 85.273 37.887 100.3zm-42.348-49.023c-1.7969-7.9375-6.1953-22.125-8.957-32.668-6.418-24.602-11.461-55.688-20.008-83.223-12.695-40.898-34.141-94.898-62.391-100.29-1.1523-0.21484-3.8359-2.457-4.4609-2.2266-76.301 28.25-175.4 76.992-225.09 142.63 49.305 68.812 76.141 160.09 109.2 245.14 15.492 22.375 28.652 51.594 64.629 55.715 9.5742-14.645 6.9023-42.145 2.2266-60.168 53.871-36.754 119.94-61.32 169.37-102.52-13.355-14.59-18.156-34.488-24.52-62.398zm-336.52-4.4648c7.7227-8.6172 16.297-16.387 28.973-20.062-6.2383-14.555-10.086-31.504-24.512-37.887-3.2891 17.473-11.168 39.875-4.4609 57.949zm430.13 31.203c-68.293 57.262-138.47 112.62-227.32 149.32 9.6914 16.27-2.7695 38.754 2.2344 55.703 106.43-15.395 160.48-83.168 225.09-140.39 2.9336-23.344 17.676-52.559 0-71.324-0.007812 2.2383-0.007812 4.4727-0.007812 6.6992z" fill-rule="evenodd"/>
 </g>
</svg>
